<?xml version="1.0" encoding="UTF-8"?>
<!DOCTYPE svg PUBLIC "-//W3C//DTD SVG 1.1//EN" "http://www.w3.org/Graphics/SVG/1.1/DTD/svg11.dtd">
<svg xmlns="http://www.w3.org/2000/svg" version="1.1" width="2907px" height="2109px" style="shape-rendering:geometricPrecision; text-rendering:geometricPrecision; image-rendering:optimizeQuality; fill-rule:evenodd; clip-rule:evenodd" xmlns:xlink="http://www.w3.org/1999/xlink">
<g><path style="opacity:0.997" fill="#fefffe" d="M -0.5,-0.5 C 155.167,-0.5 310.833,-0.5 466.5,-0.5C 608.317,358.455 750.817,717.121 894,1075.5C 1036.41,716.765 1178.91,358.098 1321.5,-0.5C 1381.17,-0.5 1440.83,-0.5 1500.5,-0.5C 1500.67,226.5 1500.5,453.5 1500,680.5C 1404.86,935.577 1309.53,1190.58 1214,1445.5C 1090.83,1444.11 971.334,1464.95 855.5,1508C 780.66,1536.09 708.994,1570.59 640.5,1611.5C 639.201,1610.91 638.368,1609.91 638,1608.5C 425.629,1072.54 212.796,536.868 -0.5,1.5C -0.5,0.833333 -0.5,0.166667 -0.5,-0.5 Z"/></g>
<g><path style="opacity:0.998" fill="#fefffe" d="M 1567.5,-0.5 C 1771.17,-0.5 1974.83,-0.5 2178.5,-0.5C 2244.56,0.317632 2310.56,4.4843 2376.5,12C 2441.85,19.3368 2504.52,36.3368 2564.5,63C 2643.89,101.967 2709.39,157.467 2761,229.5C 2802.67,297.506 2822.84,371.506 2821.5,451.5C 2820.09,581.161 2768.09,684.994 2665.5,763C 2733.3,793.644 2789.8,838.477 2835,897.5C 2879.08,961.246 2902.92,1031.91 2906.5,1109.5C 2906.5,1128.5 2906.5,1147.5 2906.5,1166.5C 2901.43,1245.56 2879.26,1319.56 2840,1388.5C 2700.52,1496.61 2542.68,1562.11 2366.5,1585C 2281.39,1595.33 2196.05,1597.66 2110.5,1592C 2004.93,1584.3 1900.26,1569.97 1796.5,1549C 1720.04,1533.64 1643.71,1517.8 1567.5,1501.5C 1567.5,1000.83 1567.5,500.167 1567.5,-0.5 Z M 2018.5,368.5 C 2082.17,368.333 2145.83,368.5 2209.5,369C 2241.34,369.204 2272.67,373.204 2303.5,381C 2351.37,396.343 2374.04,429.343 2371.5,480C 2373.09,507.482 2365.93,532.315 2350,554.5C 2338.62,567.544 2324.79,577.044 2308.5,583C 2282.25,591.986 2255.25,596.986 2227.5,598C 2157.85,599.429 2088.18,599.929 2018.5,599.5C 2018.5,522.5 2018.5,445.5 2018.5,368.5 Z M 2018.5,948.5 C 2084.83,948.333 2151.17,948.5 2217.5,949C 2246.55,949.482 2274.88,954.149 2302.5,963C 2345.74,979.948 2368.58,1011.78 2371,1058.5C 2373.73,1087.9 2370.39,1116.57 2361,1144.5C 2349.65,1173.85 2329.48,1194.68 2300.5,1207C 2275.76,1216.75 2250.09,1222.42 2223.5,1224C 2155.18,1225.43 2086.85,1225.93 2018.5,1225.5C 2018.5,1133.17 2018.5,1040.83 2018.5,948.5 Z"/></g>
<g><path style="opacity:0.995" fill="#fefffe" d="M 2834.5,1479.5 C 2835.04,1479.56 2835.38,1479.89 2835.5,1480.5C 2814.29,1516.94 2790.12,1551.27 2763,1583.5C 2649.69,1718.75 2509.19,1814.58 2341.5,1871C 2200.42,1914.38 2056.76,1925.71 1910.5,1905C 1877.63,1900.49 1844.97,1894.83 1812.5,1888C 1730.05,1867.72 1647.38,1848.39 1564.5,1830C 1434.95,1801.09 1304.29,1778.76 1172.5,1763C 1067.76,1750.48 962.761,1747.48 857.5,1754C 736.59,1762.64 620.257,1790.31 508.5,1837C 482.263,1848.12 456.263,1859.78 430.5,1872C 429.5,1872.67 428.5,1872.67 427.5,1872C 549.178,1758.82 687.511,1670.82 842.5,1608C 950.656,1564.55 1062.99,1540.55 1179.5,1536C 1239.28,1534.19 1298.61,1538.53 1357.5,1549C 1383.85,1553.89 1410.19,1558.89 1436.5,1564C 1535.56,1584.74 1634.56,1605.74 1733.5,1627C 1821.58,1645.48 1910.25,1660.48 1999.5,1672C 2111.3,1686.24 2223.3,1688.24 2335.5,1678C 2521.12,1658.44 2687.46,1592.28 2834.5,1479.5 Z"/></g>
<g><path style="opacity:0.991" fill="#fefffe" d="M 1958.5,2108.5 C 1932.17,2108.5 1905.83,2108.5 1879.5,2108.5C 1802.3,2104.3 1725.97,2093.14 1650.5,2075C 1598.04,2061.47 1545.7,2047.47 1493.5,2033C 1373.89,1999.46 1254.22,1966.13 1134.5,1933C 1070.42,1915.48 1005.75,1900.48 940.5,1888C 866.362,1873.72 791.696,1869.72 716.5,1876C 692.073,1878.63 667.74,1881.63 643.5,1885C 660.554,1873.31 678.887,1863.97 698.5,1857C 749.76,1839.28 802.427,1827.95 856.5,1823C 943.52,1815.52 1030.52,1815.85 1117.5,1824C 1212.65,1832.93 1306.99,1847.26 1400.5,1867C 1510.56,1890.74 1620.56,1914.74 1730.5,1939C 1802.46,1954.93 1874.79,1968.93 1947.5,1981C 2006.8,1990.94 2066.47,1994.6 2126.5,1992C 2179.93,1988.25 2232.26,1978.58 2283.5,1963C 2319.89,1951.93 2355.89,1939.76 2391.5,1926.5C 2391.83,1926.83 2392.17,1927.17 2392.5,1927.5C 2370.81,1953.36 2346.14,1975.86 2318.5,1995C 2251.54,2040.8 2178.2,2072.47 2098.5,2090C 2052.18,2099.96 2005.51,2106.12 1958.5,2108.5 Z"/></g>
</svg>
